# xmcd
#
# Track frame offsets: 
#        183
#        49918
#        88573
#        113593
#        148008
#        205838
#        261673
#        278608
#
# Disc length: 4201 seconds
#
# Revision: 15
# Processed by: cddbd v1.5.2PL0 Copyright (c) Steve Scherf et al.
# Submitted via: ExactAudioCopy v0.95b4
#
DISCID=73106708
DTITLE=The Borodine Trio - Beethoven - Ten Trios for Piano, Violin and C
DTITLE=ello - Volume 1
DYEAR=1984
DGENRE=Classical
TTITLE0=01. Piano Trio in E flat major Op. 1 No. 1 - 1. Allegro
TTITLE1=02. Piano Trio in E flat major Op. 1 No. 1 - 2. Adagio cantabi
TTITLE1=le
TTITLE2=03. Piano Trio in E flat major Op. 1 No. 1 - 3. Scherzo
TTITLE3=04. Piano Trio in E flat major Op. 1 No. 1 - 4. Finale, presto
TTITLE4=05. Piano Trio in G major Op. 1 No. 2 - 1. Adagio-allegro viva
TTITLE4=ce
TTITLE5=06. Piano Trio in G major Op. 1 No. 2 - 2. Largo con espressio
TTITLE5=ne
TTITLE6=07. Piano Trio in G major Op. 1 No. 2 - 3. Scherzo, allegro
TTITLE7=08. Piano Trio in G major Op. 1 No. 2 - 4. Finale, presto
EXTD=YEAR: 1984
EXTT0=
EXTT1=
EXTT2=
EXTT3=
EXTT4=
EXTT5=
EXTT6=
EXTT7=
PLAYORDER=
